# xmcd
#
# Track frame offsets: 
#        150
#        24212
#        43360
#        60390
#        78719
#        88159
#        110212
#        129250
#        139228
#        150785
#        168078
#        184021
#        199634
#
# Disc length: 2903 seconds
#
# Revision: 1
# Processed by: cddbd v1.5.2PL0 Copyright (c) Steve Scherf et al.
# Submitted via: ExactAudioCopy v0.99pb5
#
DISCID=a40b550d
DTITLE=Jean-Pierre Froidebise - Eroticomobile
DYEAR=2000
DGENRE=Blues
TTITLE0=Un type comme moi
TTITLE1=Elle à la plage
TTITLE2=Eroticomobile
TTITLE3=Chet Baker
TTITLE4=Les gabardines
TTITLE5=Une amazone
TTITLE6=Est-ce que j'ai tort
TTITLE7=Deux boulets morts
TTITLE8=On a des machines
TTITLE9=Du goudron et des plumes
TTITLE10=Passe moi la gnole pascale
TTITLE11=Le 18 septembre
TTITLE12=L'hobital St. Jacques
EXTD=
EXTT0=
EXTT1=
EXTT2=
EXTT3=
EXTT4=
EXTT5=
EXTT6=
EXTT7=
EXTT8=
EXTT9=
EXTT10=
EXTT11=
EXTT12=
PLAYORDER=
